<svg xmlns="http://www.w3.org/2000/svg" width="32" height="32" viewBox="0 0 24 24" fill="none" stroke="#0ea5e9" stroke-width="2" stroke-linecap="round" stroke-linejoin="round">
  <path d="M22 9.5V8a2 2 0 0 0-2-2h-6.1c-.5 0-.9.1-1.3.4l-1.9 1.6a3 3 0 0 1-1.9.8"></path>
  <path d="M8 17.3a3 3 0 0 0 4.2.1"></path>
  <path d="M2 14.6a5 5 0 0 0 8.9 2.8"></path>
  <path d="M18 10.7a3 3 0 0 1 4 2.8V16a3 3 0 0 1-2.8 3H18a3 3 0 0 1-3-3v-2.4a3 3 0 0 1 3-2.9Z"></path>
  <path d="M20.7 14.7a1 1 0 0 0-1.4 0"></path>
  <path d="M16.7 14.7a1 1 0 0 0-1.4 0"></path>
  <path d="M12 8v4"></path>
  <path d="M4 6V4a2 2 0 0 1 2-2h4a2 2 0 0 1 2 2v4a2 2 0 0 1-2 2H6a2 2 0 0 1-2-2V7"></path>
</svg>